<svg fill="none" height="177" width="178" xmlns="http://www.w3.org/2000/svg" xmlns:xlink="http://www.w3.org/1999/xlink"><linearGradient id="a" gradientUnits="userSpaceOnUse" x1="89.501" x2="89.501" y1="174.364" y2="4.969"><stop offset="0" stop-color="#2b41ec"/><stop offset="1" stop-color="#69a3fa"/></linearGradient><path d="m89.638 174.58c-3.699 0-7.398-.242-11.062-.726-47.154-6.084-80.445-49.263-74.326-96.417 5.53-42.797 41.934-74.912 85.147-75.017 3.699 0 7.398.242 11.062.726 47.119 6.084 80.411 49.263 74.292 96.416-5.532 42.799-41.934 74.914-85.113 75.018z" fill="url(#a)"/><g fill="#90aaf4" opacity=".65"><path d="m89.638 154.875a65.47 65.47 0 0 1 -8.608-.553c-36.298-4.667-62.053-37.993-57.386-74.292 4.252-33.049 32.358-57.836 65.683-57.94 2.87 0 5.739.173 8.608.554 36.368 4.667 62.054 37.923 57.387 74.291a66.415 66.415 0 0 1 -25.236 44.043 65.745 65.745 0 0 1 -40.448 13.897zm-.276-133.787c-33.844.069-62.4 25.236-66.72 58.839-4.737 36.852 21.433 70.696 58.285 75.432 2.904.38 5.808.553 8.711.553 37.233-.069 67.343-30.318 67.274-67.55a67.39 67.39 0 0 0 -14.07-41.07c-10.889-14.174-26.999-23.439-44.768-25.651a66.61 66.61 0 0 0 -8.712-.553z" opacity=".65"/><path d="m89.57 120.305c-1.384 0-2.766-.104-4.115-.277-17.423-2.247-29.73-18.184-27.448-35.607 2.04-15.834 15.487-27.691 31.424-27.726 1.383 0 2.766.104 4.114.277 17.423 2.247 29.73 18.184 27.449 35.607-2.04 15.833-15.488 27.691-31.425 27.726zm-.139-64.647c-18.15.139-32.704 14.97-32.565 33.119.138 16.351 12.272 30.11 28.451 32.288 1.418.173 2.835.277 4.252.277 18.15-.138 32.704-14.969 32.565-33.119-.138-16.351-12.272-30.11-28.45-32.288a35.112 35.112 0 0 0 -4.253-.277z" opacity=".65"/><path d="m90.606 3.353h-1.036v170.432h1.037v-170.432z" opacity=".65"/><path d="m175.269 88.05h-170.432v1.037h170.433v-1.037z" opacity=".65"/><path d="m30.195 27.936-.734.733 120.513 120.513.733-.734z" opacity=".65"/><path d="m149.949 27.959-120.513 120.511.734.733 120.512-120.511z" opacity=".65"/></g><g fill="#fff"><path d="m89.397 4.84c3.596 0 7.19.242 10.786.691 45.806 5.912 78.164 47.88 72.252 93.686-5.393 41.622-40.793 72.839-82.761 72.943-3.596 0-7.19-.242-10.786-.691-45.84-5.912-78.198-47.88-72.288-93.686 5.394-41.657 40.794-72.84 82.797-72.943zm0-4.84c-43.87 0-81.931 32.6-87.67 77.23-6.223 48.468 28.036 92.821 76.504 99.044 3.768.484 7.57.726 11.374.726 43.835 0 81.931-32.565 87.635-77.23 6.223-48.468-28.036-92.821-76.504-99.044a88.375 88.375 0 0 0 -11.339-.726z"/><path d="m114.633 57.767a6.336 6.336 0 0 1 4.355-1.867c-6.015-4.909-11.857-4.598-44.215 27.69l7.018 7.019zm7.709 1.279a4.55 4.55 0 0 0 -6.465 0l-32.772 32.738 4.355 4.321 34.64-30.422c1.901-1.659 2.074-4.563.415-6.43a.881.881 0 0 1 -.173-.207zm.933 7.986-34.64 30.422 6.189 6.188c14.381-13.62 28.244-27.622 29.35-37.578-.277.346-.588.657-.899.968zm-68.276 63.782a1.717 1.717 0 0 1 .864-1.901c15.695-7.882 28.348-15.972 37.612-24.096l-6.43-6.464-13.413 2.903-27.725 27.726 9.023 9.057c.345.346.933.346 1.313 0a.903.903 0 0 0 .242-.864l-1.485-6.361zm9.887-37.301c-.207.173-.242.45-.104.691.104.242.38.346.623.277l14.588-3.146-6.5-6.465zm12.134 4.355a.48.48 0 0 0 0 .657c.104.104.277.139.415.139l8.125-1.764-3.768-3.768-4.77 4.736zm-39.341 39.376a.587.587 0 0 0 0 .796c.104.103.207.138.346.172l15.66 1.072-9.023-9.023zm84.11-100.254c-5.221 5.255-5.186 13.76.069 19.014 4.044 4.045 10.233 5.047 15.349 2.524l-9.196-9.196a.878.878 0 0 1 0-1.245l11.892-11.892a13.518 13.518 0 0 0 -18.114.795z"/><path d="m141.217 37.405-11.304 11.304 8.919 8.92a15.228 15.228 0 0 0 2.005-1.625c5.047-5.117 5.22-13.275.38-18.6zm-1.141 13.378a1.04 1.04 0 0 1 -1.037-1.037c0-.242.069-.449.242-.656.761-.934.934-2.248.38-3.32a1.051 1.051 0 0 1 .692-1.313c.415-.138.899.035 1.141.38.899 1.798.657 3.976-.623 5.566-.207.242-.484.38-.795.38z"/></g></svg>